<svg width="24" height="24" viewBox="0 0 24 24" fill="none" xmlns="http://www.w3.org/2000/svg">
<g clip-path="url(#clip0)">
<path d="M6.76349 10.7645C6.76349 11.063 6.79549 11.3045 6.85149 11.482C6.91549 11.6595 6.99499 11.853 7.10699 12.0625C7.14699 12.127 7.16299 12.1915 7.16299 12.248C7.16299 12.3285 7.11499 12.409 7.01149 12.49L6.50849 12.8285C6.43649 12.877 6.36499 12.901 6.30099 12.901C6.22099 12.901 6.14149 12.8605 6.06149 12.788C5.94949 12.667 5.85399 12.538 5.77399 12.409C5.69399 12.272 5.61449 12.119 5.52649 11.9335C4.90399 12.675 4.12149 13.046 3.17949 13.046C2.50899 13.046 1.97399 12.8525 1.58299 12.4655C1.19199 12.0785 0.992493 11.5625 0.992493 10.9175C0.992493 10.2325 1.23199 9.676 1.71899 9.257C2.20599 8.838 2.85249 8.628 3.67449 8.628C3.94599 8.628 4.22549 8.652 4.52049 8.6925C4.81549 8.733 5.11899 8.7975 5.43849 8.87V8.2815C5.43849 7.669 5.31099 7.2415 5.06349 6.9915C4.80799 6.7415 4.37699 6.6205 3.76249 6.6205C3.48299 6.6205 3.19599 6.6525 2.90049 6.7255C2.60499 6.798 2.31799 6.8865 2.03849 6.9995C1.91099 7.056 1.81499 7.088 1.75899 7.1045C1.70299 7.1205 1.66299 7.1285 1.63149 7.1285C1.51949 7.1285 1.46399 7.048 1.46399 6.8785V6.4835C1.46399 6.3545 1.47999 6.258 1.51999 6.2015C1.55999 6.145 1.63199 6.0885 1.74349 6.032C2.02299 5.887 2.35799 5.766 2.74949 5.669C3.14049 5.564 3.55549 5.516 3.99449 5.516C4.94449 5.516 5.63899 5.7335 6.08599 6.169C6.52499 6.6045 6.74849 7.2655 6.74849 8.152V10.764H6.76349V10.7645ZM3.52249 11.9895C3.78599 11.9895 4.05749 11.941 4.34449 11.8445C4.63199 11.748 4.88749 11.5705 5.10299 11.3285C5.23049 11.1755 5.32649 11.006 5.37449 10.8125C5.42249 10.619 5.45449 10.385 5.45449 10.111V9.7725C5.22299 9.716 4.97549 9.6675 4.71999 9.6355C4.46449 9.6035 4.21699 9.587 3.96949 9.587C3.43449 9.587 3.04349 9.692 2.77999 9.9095C2.51649 10.127 2.38899 10.4335 2.38899 10.8365C2.38899 11.2155 2.48499 11.4975 2.68449 11.691C2.87599 11.893 3.15549 11.9895 3.52249 11.9895ZM9.93249 12.8605C9.78899 12.8605 9.69299 12.8365 9.62899 12.78C9.56499 12.7315 9.50949 12.619 9.46149 12.4655L7.58549 6.234C7.53749 6.073 7.51349 5.968 7.51349 5.9115C7.51349 5.7825 7.57749 5.71 7.70499 5.71H8.48749C8.63899 5.71 8.74299 5.734 8.79899 5.7905C8.86299 5.839 8.91049 5.9515 8.95849 6.105L10.2995 11.442L11.5445 6.105C11.5845 5.944 11.6325 5.839 11.696 5.7905C11.76 5.742 11.8715 5.71 12.0155 5.71H12.654C12.8055 5.71 12.9095 5.734 12.9735 5.7905C13.0375 5.839 13.093 5.9515 13.125 6.105L14.386 11.5065L15.767 6.105C15.815 5.944 15.871 5.839 15.9265 5.7905C15.9905 5.742 16.094 5.71 16.238 5.71H16.9805C17.108 5.71 17.18 5.7745 17.18 5.9115C17.18 5.952 17.172 5.992 17.164 6.0405C17.156 6.089 17.14 6.1535 17.108 6.242L15.1845 12.4735C15.1365 12.6345 15.0805 12.7395 15.017 12.788C14.9535 12.8365 14.8495 12.8685 14.7135 12.8685H14.027C13.8755 12.8685 13.7715 12.8445 13.7075 12.788C13.6435 12.7315 13.588 12.627 13.556 12.4655L12.319 7.2655L11.09 12.4575C11.05 12.6185 11.002 12.7235 10.9385 12.78C10.8745 12.8365 10.763 12.8605 10.619 12.8605H9.93249ZM20.1895 13.078C19.7745 13.078 19.3595 13.0295 18.9605 12.933C18.5615 12.8365 18.25 12.7315 18.0425 12.6105C17.915 12.538 17.827 12.4575 17.795 12.385C17.763 12.3125 17.747 12.232 17.747 12.1595V11.7485C17.747 11.579 17.811 11.4985 17.9305 11.4985C17.9785 11.4985 18.0265 11.5065 18.074 11.5225C18.122 11.5385 18.1935 11.571 18.2735 11.603C18.545 11.724 18.84 11.8205 19.1515 11.885C19.471 11.9495 19.782 11.9815 20.1015 11.9815C20.6045 11.9815 20.9955 11.893 21.267 11.7155C21.5385 11.538 21.682 11.28 21.682 10.9495C21.682 10.724 21.61 10.5385 21.4665 10.385C21.323 10.232 21.0515 10.095 20.6605 9.966L19.503 9.603C18.9205 9.4175 18.4895 9.1435 18.226 8.7805C17.9625 8.426 17.827 8.031 17.827 7.6115C17.827 7.273 17.899 6.9745 18.0425 6.7165C18.186 6.4585 18.378 6.233 18.617 6.0555C18.8565 5.87 19.128 5.733 19.447 5.6365C19.7665 5.5405 20.1015 5.5 20.453 5.5C20.6285 5.5 20.812 5.508 20.988 5.532C21.1715 5.556 21.339 5.5885 21.507 5.6205C21.6665 5.661 21.8185 5.701 21.962 5.7495C22.1055 5.798 22.2175 5.846 22.2975 5.8945C22.4095 5.959 22.489 6.0235 22.537 6.096C22.585 6.1605 22.609 6.249 22.609 6.362V6.741C22.609 6.9105 22.545 6.999 22.4255 6.999C22.3615 6.999 22.258 6.967 22.122 6.9025C21.667 6.693 21.156 6.588 20.5895 6.588C20.1345 6.588 19.7755 6.6605 19.528 6.8135C19.2805 6.9665 19.153 7.2005 19.153 7.531C19.153 7.7565 19.233 7.95 19.3925 8.1035C19.552 8.2565 19.8475 8.41 20.2705 8.547L21.404 8.91C21.9785 9.0955 22.394 9.3535 22.641 9.684C22.888 10.0145 23.008 10.3935 23.008 10.8125C23.008 11.159 22.936 11.4735 22.8005 11.7475C22.657 12.0215 22.465 12.2635 22.218 12.457C21.9705 12.6585 21.675 12.8035 21.332 12.9085C20.9715 13.0215 20.5965 13.078 20.1895 13.078Z" fill="white"/>
<path d="M21.698 16.996C19.072 18.955 15.2565 19.995 11.9755 19.995C7.37799 19.995 3.23499 18.278 0.105988 15.424C-0.141512 15.1985 0.0819882 14.892 0.377488 15.0695C3.76199 17.0525 7.93649 18.254 12.255 18.254C15.1685 18.254 18.3695 17.6415 21.3145 16.3835C21.754 16.182 22.129 16.6735 21.698 16.996ZM22.7915 15.7385C22.456 15.303 20.5725 15.529 19.7185 15.6335C19.463 15.6655 19.423 15.44 19.6545 15.2705C21.155 14.2065 23.6215 14.5125 23.909 14.8675C24.1965 15.2305 23.829 17.7215 22.4245 18.9145C22.209 19.1 22.0015 19.003 22.097 18.7615C22.4165 17.9635 23.127 16.1655 22.7915 15.7385Z" fill="#FF9900"/>
</g>
<defs>
<clipPath id="clip0">
<rect width="24" height="24" fill="white"/>
</clipPath>
</defs>
</svg>
