<svg width="28" height="28" viewBox="0 0 28 28" fill="none" xmlns="http://www.w3.org/2000/svg">
<path fill-rule="evenodd" clip-rule="evenodd" d="M13.3601 1.91684C13.7562 1.69459 14.2439 1.69459 14.6394 1.91684C16.5964 3.01526 22.4858 6.32159 24.4434 7.42001C24.8395 7.64167 25.0834 8.05234 25.0834 8.49684C25.0834 10.6937 25.0834 17.3058 25.0834 19.5026C25.0834 19.9471 24.8395 20.3578 24.4434 20.58C22.4864 21.6784 16.597 24.9848 14.6394 26.0832C14.2433 26.3054 13.7556 26.3054 13.3601 26.0832C11.403 24.9848 5.51369 21.6784 3.55602 20.58C3.16052 20.3578 2.91669 19.9477 2.91669 19.5032C2.91669 17.3063 2.91669 10.6943 2.91669 8.49742C2.91669 8.05292 3.16052 7.64226 3.5566 7.42001C5.5131 6.32159 11.4036 3.01526 13.3601 1.91684Z" fill="#37474F"/>
<path fill-rule="evenodd" clip-rule="evenodd" d="M3.09402 20.069C2.93885 19.8613 2.91669 19.6642 2.91669 19.3988C2.91669 17.2148 2.91669 10.6406 2.91669 8.45601C2.91669 8.01384 3.15994 7.60551 3.55485 7.38501C5.50494 6.29301 11.3744 3.00593 13.3245 1.91335C13.7194 1.69226 14.2544 1.69693 14.6493 1.91801C16.5994 3.01001 22.449 6.26909 24.3991 7.36109C24.5566 7.44976 24.6768 7.55651 24.7841 7.69709L3.09402 20.069Z" fill="#546E7A"/>
<path fill-rule="evenodd" clip-rule="evenodd" d="M14 5.83334C18.5074 5.83334 22.1666 9.49259 22.1666 14C22.1666 18.5074 18.5074 22.1667 14 22.1667C9.49256 22.1667 5.83331 18.5074 5.83331 14C5.83331 9.49259 9.49256 5.83334 14 5.83334ZM14 9.91668C16.2534 9.91668 18.0833 11.746 18.0833 14C18.0833 16.2534 16.2534 18.0833 14 18.0833C11.7466 18.0833 9.91665 16.2534 9.91665 14C9.91665 11.746 11.746 9.91668 14 9.91668Z" fill="white"/>
<path fill-rule="evenodd" clip-rule="evenodd" d="M24.7829 7.70291C25.0839 7.98466 25.0781 8.40933 25.0781 8.74358C25.0781 10.9573 25.0594 17.2538 25.0833 19.4676C25.0857 19.6986 25.0092 19.9418 24.8949 20.125L13.7626 14L24.7829 7.70291Z" fill="#455A64"/>
<path fill-rule="evenodd" clip-rule="evenodd" d="M19.8333 11.6667H20.4166V16.3333H19.8333V11.6667ZM21.5833 11.6667H22.1666V16.3333H21.5833V11.6667Z" fill="white"/>
<path fill-rule="evenodd" clip-rule="evenodd" d="M18.6667 14.5833H23.3334V15.1667H18.6667V14.5833ZM18.6667 12.8333H23.3334V13.4167H18.6667V12.8333Z" fill="white"/>
</svg>
