<svg width="28" height="28" viewBox="0 0 28 28" fill="none" xmlns="http://www.w3.org/2000/svg">
<path d="M14.5833 4.66666H13.4167V22.75H14.5833V4.66666Z" fill="#64717C"/>
<path d="M21.5688 5.25001C22.2116 5.25001 22.7348 5.77326 22.7354 6.41609L22.75 21.5676C22.7506 21.8791 22.6293 22.1725 22.4088 22.393C22.1883 22.6135 21.8954 22.7354 21.5839 22.7354L6.43126 22.75C5.78843 22.75 5.26518 22.2268 5.26459 21.5839L5.25001 6.43243C5.24943 6.12093 5.37076 5.82751 5.59126 5.60701C5.81118 5.38651 6.10459 5.26459 6.41609 5.26459L21.5664 5.25001H21.5688ZM21.5682 4.08334C21.5676 4.08334 21.5664 4.08334 21.5658 4.08334L6.41493 4.09793C5.12576 4.09909 4.08218 5.14501 4.08334 6.43418L4.09793 21.5851C4.09909 22.8731 5.14384 23.9167 6.43184 23.9167C6.43243 23.9167 6.43359 23.9167 6.43418 23.9167L21.5851 23.9021C22.8743 23.9009 23.9178 22.855 23.9167 21.5658L23.9021 6.41493C23.9009 5.12693 22.8562 4.08334 21.5682 4.08334Z" fill="#64717C"/>
<path d="M14 7.00001C15.2887 7.00001 16.3333 5.95534 16.3333 4.66668C16.3333 3.37801 15.2887 2.33334 14 2.33334C12.7113 2.33334 11.6667 3.37801 11.6667 4.66668C11.6667 5.95534 12.7113 7.00001 14 7.00001Z" fill="#50E6FF"/>
<path d="M14 25.6667C15.2887 25.6667 16.3333 24.622 16.3333 23.3333C16.3333 22.0447 15.2887 21 14 21C12.7113 21 11.6667 22.0447 11.6667 23.3333C11.6667 24.622 12.7113 25.6667 14 25.6667Z" fill="#50E6FF"/>
<path d="M15.75 16.3333H12.25C11.928 16.3333 11.6667 16.072 11.6667 15.75V12.25C11.6667 11.928 11.928 11.6667 12.25 11.6667H15.75C16.072 11.6667 16.3333 11.928 16.3333 12.25V15.75C16.3333 16.072 16.072 16.3333 15.75 16.3333Z" fill="url(#paint0_linear_221_2)"/>
<path d="M25.0833 16.3333H21.5833C21.2613 16.3333 21 16.072 21 15.75V12.25C21 11.928 21.2613 11.6667 21.5833 11.6667H25.0833C25.4053 11.6667 25.6667 11.928 25.6667 12.25V15.75C25.6667 16.072 25.4053 16.3333 25.0833 16.3333Z" fill="url(#paint1_linear_221_2)"/>
<path d="M6.41668 16.3333H2.91668C2.59468 16.3333 2.33334 16.072 2.33334 15.75V12.25C2.33334 11.928 2.59468 11.6667 2.91668 11.6667H6.41668C6.73868 11.6667 7.00001 11.928 7.00001 12.25V15.75C7.00001 16.072 6.73868 16.3333 6.41668 16.3333Z" fill="url(#paint2_linear_221_2)"/>
<defs>
<linearGradient id="paint0_linear_221_2" x1="14" y1="11.7157" x2="14" y2="16.1787" gradientUnits="userSpaceOnUse">
<stop stop-color="#199AE0"/>
<stop offset="1" stop-color="#0782D8"/>
</linearGradient>
<linearGradient id="paint1_linear_221_2" x1="23.3333" y1="11.7157" x2="23.3333" y2="16.1787" gradientUnits="userSpaceOnUse">
<stop stop-color="#199AE0"/>
<stop offset="1" stop-color="#0782D8"/>
</linearGradient>
<linearGradient id="paint2_linear_221_2" x1="4.66668" y1="11.7157" x2="4.66668" y2="16.1787" gradientUnits="userSpaceOnUse">
<stop stop-color="#199AE0"/>
<stop offset="1" stop-color="#0782D8"/>
</linearGradient>
</defs>
</svg>
