<svg width="28" height="28" viewBox="0 0 28 28" fill="none" xmlns="http://www.w3.org/2000/svg">
<path d="M13.2188 9.04216C13.4469 8.71263 13.6967 8.67072 13.8993 8.67072C14.1019 8.67072 14.4394 8.71263 14.6676 9.04216C16.4658 11.4627 19.434 16.2844 21.6236 19.8412C23.0514 22.1608 24.1481 23.9423 24.3731 24.169C25.2177 25.0201 26.3761 24.4897 27.0493 23.5243C27.7119 22.5739 27.8959 21.9065 27.8959 21.1945C27.8959 20.7096 18.2952 3.21129 17.3284 1.75478C16.3986 0.353855 16.0957 0 14.5043 0H13.3134C11.7267 0 11.4974 0.353855 10.5675 1.75478C9.60069 3.21129 0 20.7096 0 21.1945C0 21.9065 0.183969 22.5739 0.846662 23.5243C1.51978 24.4897 2.67817 25.0201 3.52278 24.169C3.74781 23.9423 4.84451 22.1608 6.27238 19.8412C8.4619 16.2844 11.4206 11.4627 13.2188 9.04216Z" fill="white"/>
</svg>
