<svg width="25" height="36" viewBox="0 0 25 36" fill="none" xmlns="http://www.w3.org/2000/svg">
<g clip-path="url(#clip0)">
<path d="M6.08946 36C9.44949 36 12.1765 33.312 12.1765 30V24H6.08946C2.72943 24 0.00244141 26.688 0.00244141 30C0.00244141 33.312 2.72943 36 6.08946 36Z" fill="#0ACF83"/>
<path d="M0.00244141 18C0.00244141 14.688 2.72943 12 6.08946 12H12.1765V24H6.08946C2.72943 24 0.00244141 21.312 0.00244141 18Z" fill="#A259FF"/>
<path d="M0.00326538 6.00003C0.00326538 2.68803 2.73025 3.05176e-05 6.09028 3.05176e-05H12.1773V12H6.09028C2.73025 12 0.00326538 9.31203 0.00326538 6.00003Z" fill="#F24E1E"/>
<path d="M12.1765 1.52588e-05H18.2635C21.6235 1.52588e-05 24.3505 2.68802 24.3505 6.00002C24.3505 9.31202 21.6235 12 18.2635 12H12.1765V1.52588e-05Z" fill="#FF7262"/>
<path d="M24.3505 18C24.3505 21.312 21.6235 24 18.2635 24C14.9035 24 12.1765 21.312 12.1765 18C12.1765 14.688 14.9035 12 18.2635 12C21.6235 12 24.3505 14.688 24.3505 18Z" fill="#1ABCFE"/>
</g>
<defs>
<clipPath id="clip0">
<rect width="24.3529" height="36" fill="white"/>
</clipPath>
</defs>
</svg>
