<svg width="28" height="28" viewBox="0 0 28 28" fill="none" xmlns="http://www.w3.org/2000/svg">
<path d="M14 2.79999C7.81479 2.79999 2.79999 7.81479 2.79999 14C2.79999 19.2481 6.41385 23.6395 11.2859 24.8547C11.2336 24.7035 11.2 24.528 11.2 24.3105V22.3963C10.7455 22.3963 9.98385 22.3963 9.79252 22.3963C9.02625 22.3963 8.34492 22.0668 8.01452 21.4545C7.64772 20.7741 7.58425 19.7335 6.67519 19.0969C6.40545 18.8851 6.61079 18.6433 6.92159 18.676C7.49559 18.8384 7.97159 19.2323 8.41959 19.8165C8.86572 20.4017 9.07572 20.5343 9.90919 20.5343C10.3133 20.5343 10.9181 20.5109 11.4875 20.4213C11.7936 19.6439 12.3228 18.928 12.9696 18.5901C9.23999 18.2065 7.46012 16.3511 7.46012 13.832C7.46012 12.7475 7.92212 11.6984 8.70705 10.8145C8.44945 9.93719 8.12559 8.14799 8.80599 7.46665C10.4841 7.46665 11.4987 8.55492 11.7423 8.84892C12.5785 8.56239 13.4969 8.39999 14.462 8.39999C15.4289 8.39999 16.3511 8.56239 17.1892 8.85079C17.43 8.55865 18.4455 7.46665 20.1273 7.46665C20.8105 8.14892 20.4829 9.94559 20.2225 10.8211C21.0028 11.7031 21.462 12.7493 21.462 13.832C21.462 16.3492 19.6849 18.2037 15.9609 18.5892C16.9857 19.124 17.7333 20.6267 17.7333 21.7588V24.3105C17.7333 24.4076 17.7119 24.4776 17.7007 24.5607C22.0649 23.0309 25.2 18.8869 25.2 14C25.2 7.81479 20.1852 2.79999 14 2.79999Z" fill="white"/>
</svg>
