<svg width="28" height="28" viewBox="0 0 28 28" fill="none" xmlns="http://www.w3.org/2000/svg">
<path d="M4.08334 23.9167V4.08333C4.08334 2.79475 5.12809 1.75 6.41668 1.75H21.5833C22.8719 1.75 23.9167 2.79125 23.9167 4.07983C23.9167 8.757 23.9167 19.2413 23.9167 23.919C23.9167 25.2082 22.8719 26.25 21.5833 26.25H6.41668C5.12809 26.25 4.08334 25.2052 4.08334 23.9167Z" fill="#7E57C2"/>
<path d="M16.5037 22.8789V13.1489C16.5037 13.1489 17.1366 10.8208 8.70801 14.1015C8.69284 14.1429 8.69284 5.10417 8.69284 5.10417L11.4468 5.08725V10.8786C11.4468 10.8786 19.1573 7.84175 19.1573 13.1816V22.8783L16.5037 22.8789ZM18.0728 8.5925H15.1521C16.2033 7.30683 17.1553 5.10417 17.1553 5.10417H20.1758C20.1752 5.10475 19.6583 6.53975 18.0728 8.5925ZM8.74242 22.862V17.3215L11.5133 20.0923L8.74242 22.862Z" fill="white"/>
</svg>
