<svg width="40" height="40" viewBox="0 0 40 40" fill="none" xmlns="http://www.w3.org/2000/svg">
<path d="M21.4844 5C20.6394 5 19.9306 5.63628 19.8372 6.47461L16.8717 33.1608C16.7617 34.1425 17.529 35 18.5156 35C19.359 35 20.0694 34.3637 20.1628 33.5254L23.1283 6.83919C23.2383 5.85753 22.471 5 21.4844 5ZM9.51172 11.1784C9.08505 11.1784 8.65833 11.3417 8.33333 11.6667L1.17839 18.8216C0.52672 19.4733 0.52672 20.5284 1.17839 21.1784L8.33333 28.3333C8.98333 28.9833 10.0401 28.9833 10.6901 28.3333C11.3401 27.6833 11.3401 26.6266 10.6901 25.9766L4.71354 20L10.6901 14.0234C11.3418 13.3734 11.3418 12.3167 10.6901 11.6667C10.3651 11.3417 9.93839 11.1784 9.51172 11.1784ZM30.4883 11.1784C30.0616 11.1784 29.6349 11.3417 29.3099 11.6667C28.6599 12.3167 28.6599 13.3734 29.3099 14.0234L35.2865 20L29.3099 25.9766C28.6599 26.6266 28.6599 27.6833 29.3099 28.3333C29.9599 28.9833 31.0167 28.9833 31.6667 28.3333L38.8216 21.1784C39.4733 20.5267 39.4733 19.4716 38.8216 18.8216L31.6667 11.6667C31.3417 11.3417 30.9149 11.1784 30.4883 11.1784Z" fill="#0090FF"/>
</svg>
