<svg width="40" height="40" viewBox="0 0 40 40" fill="none" xmlns="http://www.w3.org/2000/svg">
<g clip-path="url(#clip0_219_2)">
<path d="M0.241692 20.5842L8.16586 28.5083C8.48836 28.8308 9.01086 28.8308 9.33336 28.5083L11.0075 26.8342C11.33 26.5117 11.33 25.9892 11.0075 25.6667L3.08419 17.7417C2.76169 17.4192 2.23919 17.4192 1.91669 17.7417L0.241692 19.4158C-0.0808081 19.7383 -0.0808081 20.2617 0.241692 20.5842Z" fill="url(#paint0_linear_219_2)"/>
<path d="M3.08419 22.2583L11.0084 14.3342C11.3309 14.0117 11.3309 13.4892 11.0084 13.1667L9.33419 11.4925C9.01169 11.17 8.48919 11.17 8.16669 11.4925L0.241692 19.4158C-0.0808081 19.7383 -0.0808081 20.2608 0.241692 20.5833L1.91586 22.2575C2.23836 22.5808 2.76169 22.5808 3.08419 22.2583Z" fill="url(#paint1_linear_219_2)"/>
<path d="M39.7583 20.5842L31.8342 28.5083C31.5117 28.8308 30.9892 28.8308 30.6667 28.5083L28.9925 26.8342C28.67 26.5117 28.67 25.9892 28.9925 25.6667L36.9166 17.7425C37.2391 17.42 37.7616 17.42 38.0841 17.7425L39.7583 19.4167C40.0808 19.7383 40.0808 20.2617 39.7583 20.5842Z" fill="url(#paint2_linear_219_2)"/>
<path d="M36.9159 22.2583L28.9917 14.3342C28.6692 14.0117 28.6692 13.4892 28.9917 13.1667L30.6659 11.4925C30.9884 11.17 31.5109 11.17 31.8334 11.4925L39.7575 19.4167C40.08 19.7392 40.08 20.2617 39.7575 20.5842L38.0834 22.2583C37.7617 22.5808 37.2384 22.5808 36.9159 22.2583Z" fill="url(#paint3_linear_219_2)"/>
<path d="M25.2083 2.08334H22.2C21.8058 2.08334 21.465 2.36001 21.3842 2.74584L14.1808 37.1633C14.0992 37.5517 14.3958 37.9167 14.7925 37.9167H17.8008C18.195 37.9167 18.5358 37.64 18.6167 37.2542L25.82 2.83668C25.9008 2.44834 25.605 2.08334 25.2083 2.08334Z" fill="#0078D4"/>
</g>
<defs>
<linearGradient id="paint0_linear_219_2" x1="10.6059" y1="28.1058" x2="3.48836" y2="20.9883" gradientUnits="userSpaceOnUse">
<stop offset="0.365" stop-color="#199AE0"/>
<stop offset="0.699" stop-color="#1898DE"/>
<stop offset="0.819" stop-color="#1691D8"/>
<stop offset="0.905" stop-color="#1186CC"/>
<stop offset="0.974" stop-color="#0A75BC"/>
<stop offset="1" stop-color="#076CB3"/>
</linearGradient>
<linearGradient id="paint1_linear_219_2" x1="1.13253" y1="21.3675" x2="10.2975" y2="12.2025" gradientUnits="userSpaceOnUse">
<stop stop-color="#32BDEF"/>
<stop offset="1" stop-color="#1EA2E4"/>
</linearGradient>
<linearGradient id="paint2_linear_219_2" x1="29.3942" y1="28.1058" x2="36.5117" y2="20.9883" gradientUnits="userSpaceOnUse">
<stop offset="0.365" stop-color="#199AE0"/>
<stop offset="0.699" stop-color="#1898DE"/>
<stop offset="0.819" stop-color="#1691D8"/>
<stop offset="0.905" stop-color="#1186CC"/>
<stop offset="0.974" stop-color="#0A75BC"/>
<stop offset="1" stop-color="#076CB3"/>
</linearGradient>
<linearGradient id="paint3_linear_219_2" x1="38.8675" y1="21.3675" x2="29.7025" y2="12.2025" gradientUnits="userSpaceOnUse">
<stop stop-color="#32BDEF"/>
<stop offset="1" stop-color="#1EA2E4"/>
</linearGradient>
<clipPath id="clip0_219_2">
<rect width="40" height="40" fill="white"/>
</clipPath>
</defs>
</svg>
