<svg width="28" height="28" viewBox="0 0 28 28" fill="none" xmlns="http://www.w3.org/2000/svg">
<path d="M18.282 2.80912C16.3478 2.73264 14.3887 3.43212 12.9117 4.90912C11.0684 6.7524 10.8282 8.95844 11.6685 11.0523L3.89375 18.8271C2.43589 20.285 2.43589 22.6484 3.89375 24.1063C5.35162 25.5641 7.71505 25.5641 9.17292 24.1063L16.9477 16.3315C19.0416 17.1719 21.2476 16.9316 23.0909 15.0883C25.0602 13.119 25.6451 10.2939 24.8555 7.8112L20.5333 12.1333L16.8 11.2L15.8667 7.46667L20.1888 3.14454C19.5681 2.94714 18.9268 2.83461 18.282 2.80912ZM6.53334 19.6C7.56467 19.6 8.4 20.4353 8.4 21.4667C8.4 22.498 7.56467 23.3333 6.53334 23.3333C5.502 23.3333 4.66667 22.498 4.66667 21.4667C4.66667 20.4353 5.502 19.6 6.53334 19.6Z" fill="white"/>
</svg>
