<svg width="48" height="48" viewBox="0 0 48 48" fill="none" xmlns="http://www.w3.org/2000/svg">
<path d="M40.657 18.5391L23.6575 22.5404L24.3449 25.4606L41.3443 21.4593L40.657 18.5391Z" fill="#64717C"/>
<path d="M12.191 41.911L9.80801 40.089L22.808 23.089C23.087 22.724 23.518 22.507 23.977 22.5C24.439 22.504 24.873 22.697 25.163 23.054L38.163 39.054L35.835 40.947L24.035 26.424L12.191 41.911Z" fill="#64717C"/>
<path d="M24 25.5C23.736 25.5 23.473 25.431 23.239 25.293L6.23901 15.293L7.76001 12.707L23.005 21.675L26.54 6.65601L29.46 7.34401L25.46 24.344C25.351 24.808 25.028 25.193 24.59 25.379C24.401 25.46 24.2 25.5 24 25.5Z" fill="#64717C"/>
<path d="M24 32C28.4183 32 32 28.4183 32 24C32 19.5817 28.4183 16 24 16C19.5817 16 16 19.5817 16 24C16 28.4183 19.5817 32 24 32Z" fill="url(#paint0_linear_411_20)"/>
<path d="M28 12C30.7614 12 33 9.76142 33 7C33 4.23858 30.7614 2 28 2C25.2386 2 23 4.23858 23 7C23 9.76142 25.2386 12 28 12Z" fill="url(#paint1_linear_411_20)"/>
<path d="M41 25C43.7614 25 46 22.7614 46 20C46 17.2386 43.7614 15 41 15C38.2386 15 36 17.2386 36 20C36 22.7614 38.2386 25 41 25Z" fill="url(#paint2_linear_411_20)"/>
<path d="M37 45C39.7614 45 42 42.7614 42 40C42 37.2386 39.7614 35 37 35C34.2386 35 32 37.2386 32 40C32 42.7614 34.2386 45 37 45Z" fill="url(#paint3_linear_411_20)"/>
<path d="M11 46C13.7614 46 16 43.7614 16 41C16 38.2386 13.7614 36 11 36C8.23858 36 6 38.2386 6 41C6 43.7614 8.23858 46 11 46Z" fill="url(#paint4_linear_411_20)"/>
<path d="M7 19C9.76142 19 12 16.7614 12 14C12 11.2386 9.76142 9 7 9C4.23858 9 2 11.2386 2 14C2 16.7614 4.23858 19 7 19Z" fill="url(#paint5_linear_411_20)"/>
<defs>
<linearGradient id="paint0_linear_411_20" x1="18.573" y1="18.573" x2="29.735" y2="29.735" gradientUnits="userSpaceOnUse">
<stop stop-color="#32BDEF"/>
<stop offset="1" stop-color="#1EA2E4"/>
</linearGradient>
<linearGradient id="paint1_linear_411_20" x1="24.608" y1="3.608" x2="31.584" y2="10.584" gradientUnits="userSpaceOnUse">
<stop stop-color="#0D61A9"/>
<stop offset="1" stop-color="#16528C"/>
</linearGradient>
<linearGradient id="paint2_linear_411_20" x1="37.608" y1="16.608" x2="44.584" y2="23.584" gradientUnits="userSpaceOnUse">
<stop stop-color="#0D61A9"/>
<stop offset="1" stop-color="#16528C"/>
</linearGradient>
<linearGradient id="paint3_linear_411_20" x1="33.608" y1="36.608" x2="40.584" y2="43.584" gradientUnits="userSpaceOnUse">
<stop stop-color="#0D61A9"/>
<stop offset="1" stop-color="#16528C"/>
</linearGradient>
<linearGradient id="paint4_linear_411_20" x1="7.608" y1="37.608" x2="14.584" y2="44.584" gradientUnits="userSpaceOnUse">
<stop stop-color="#0D61A9"/>
<stop offset="1" stop-color="#16528C"/>
</linearGradient>
<linearGradient id="paint5_linear_411_20" x1="3.608" y1="10.608" x2="10.584" y2="17.584" gradientUnits="userSpaceOnUse">
<stop stop-color="#0D61A9"/>
<stop offset="1" stop-color="#16528C"/>
</linearGradient>
</defs>
</svg>
