<svg width="28" height="28" viewBox="0 0 28 28" fill="none" xmlns="http://www.w3.org/2000/svg">
<path d="M25.6667 14C25.6667 20.4423 20.4423 25.6667 14 25.6667C7.55768 25.6667 2.33334 20.4423 2.33334 14C2.33334 7.55767 7.55768 2.33334 14 2.33334C20.4423 2.33334 25.6667 7.55767 25.6667 14Z" fill="#4CAF50"/>
<path d="M15.6905 17.0304C15.6905 16.5608 15.5651 16.1898 15.3142 15.9116C15.0634 15.6333 14.6376 15.3761 14.0362 15.1416C13.4347 14.9071 12.0791 14.1458 11.4887 13.5969C11.1697 13.3006 10.9328 12.9407 10.7596 12.5353C10.5863 12.1269 10.5 11.6439 10.5 11.0833C10.5 10.1173 10.7893 9.2785 11.3202 8.60417C12.0493 7.67434 13.4167 7.58334 13.4167 7.58334V5.83334H14.5833V7.58334C15.2623 7.58334 16.6046 7.80909 17.395 9.01892C18.0927 10.0876 18.0833 11.6667 18.0833 11.6667H15.75C15.75 10.9783 15.6135 10.4883 15.3422 10.1488C15.0663 9.807 14.6452 9.63609 14.1872 9.63609C13.734 9.63609 13.4534 9.83209 13.2072 10.0987C12.9587 10.3658 12.8333 10.7322 12.8333 11.2018C12.8333 11.6369 12.9541 11.9881 13.1979 12.25C13.4394 12.5119 13.8197 12.7219 14.4807 12.9949C15.1392 13.2708 15.6817 13.5281 16.1052 13.7719C16.5311 14.0158 16.8892 14.2917 17.1809 14.5968C17.4749 14.9018 17.6983 15.253 17.8529 15.6427C18.0057 16.037 18.0833 16.4926 18.0833 17.0147C18.0833 17.9877 17.7917 18.7781 17.206 19.3848C16.6203 19.9914 15.6088 20.3484 14.5833 20.4575V22.1667H13.4167V20.4668C12.2862 20.3391 11.4683 19.9243 10.8488 19.2156C10.2264 18.5092 9.91666 17.507 9.91666 16.3333H12.25C12.25 17.0147 12.4052 17.6003 12.7172 17.9626C13.0293 18.3272 13.4143 18.5098 14 18.5098C14.4853 18.5098 14.9887 18.3756 15.2717 18.1108C15.5517 17.8418 15.6905 17.4843 15.6905 17.0304Z" fill="white"/>
</svg>
