<svg width="28" height="28" viewBox="0 0 28 28" fill="none" xmlns="http://www.w3.org/2000/svg">
<path d="M14.0274 2.91667C13.1203 2.91959 12.4915 2.9995 11.7314 3.13075C9.48676 3.52159 9.07785 4.34234 9.07785 5.85492V8.16667H14.3278V9.33334H8.87835H6.34085C4.80318 9.33334 3.45743 10.0578 3.03101 11.7944C2.54918 13.7877 2.5276 15.036 3.03101 17.1173C3.4131 18.6696 4.25485 19.8333 5.7931 19.8333H7.91176V16.856C7.91176 15.1258 9.4786 13.4167 11.2741 13.4167H15.4951C16.9668 13.4167 18.4118 12.3305 18.4118 10.8634V5.85492C18.4118 4.43217 17.3857 3.36817 15.9513 3.12959C15.9868 3.12609 14.9269 2.91317 14.0274 2.91667ZM11.1201 5.25C11.599 5.25 11.9951 5.64492 11.9951 6.12617C11.9951 6.61209 11.599 7 11.1201 7C10.6318 7 10.2451 6.61267 10.2451 6.12617C10.2451 5.64667 10.6318 5.25 11.1201 5.25Z" fill="#0277BD"/>
<path d="M13.4622 25.0833C14.3692 25.0804 14.9981 25.0005 15.7582 24.8693C18.0028 24.4784 18.4117 23.6577 18.4117 22.1451V19.8333H13.1617V18.6667H18.6118H21.1493C22.687 18.6667 24.0327 17.9422 24.4592 16.2056C24.941 14.2123 24.9626 12.964 24.4592 10.8827C24.0765 9.33042 23.2347 8.16667 21.6965 8.16667H19.5778V11.144C19.5778 12.8742 18.011 14.5833 16.2155 14.5833H11.9945C10.5227 14.5833 9.07782 15.6695 9.07782 17.1366V22.1451C9.07782 23.5678 10.1039 24.6318 11.5383 24.8704C11.5027 24.8739 12.5627 25.0868 13.4622 25.0833ZM16.3701 22.75C15.8912 22.75 15.4951 22.3551 15.4951 21.8738C15.4951 21.3879 15.8912 21 16.3701 21C16.8583 21 17.2451 21.3873 17.2451 21.8738C17.2451 22.3533 16.8577 22.75 16.3701 22.75Z" fill="#FFC107"/>
</svg>
