<svg width="28" height="28" viewBox="0 0 28 28" fill="none" xmlns="http://www.w3.org/2000/svg">
<path d="M14 19.8333C6.47498 19.8333 0.583313 17.2667 0.583313 14C0.583313 10.7333 6.47498 8.16667 14 8.16667C21.525 8.16667 27.4166 10.7333 27.4166 14C27.4166 17.2667 21.525 19.8333 14 19.8333ZM14 9.33334C6.64998 9.33334 1.74998 11.725 1.74998 14C1.74998 16.275 6.64998 18.6667 14 18.6667C21.35 18.6667 26.25 16.275 26.25 14C26.25 11.725 21.35 9.33334 14 9.33334Z" fill="#80DEEA"/>
<path d="M8.8083 26.0167C8.22496 26.0167 7.7583 25.9 7.29163 25.6083C4.4333 23.975 5.19163 17.6167 8.92496 11.0833C10.675 8.05 12.8333 5.48334 14.9333 3.85C17.2083 2.1 19.25 1.575 20.65 2.39167C22.1083 3.20834 22.6333 5.25 22.2833 8.10834C21.9333 10.7917 20.7666 13.9417 19.0166 16.975C17.2666 20.0083 15.1083 22.575 13.0083 24.2083C11.4916 25.375 10.0333 26.0167 8.8083 26.0167ZM19.1916 3.15C18.2583 3.15 17.0333 3.675 15.6916 4.725C13.7083 6.3 11.6666 8.75 9.97496 11.6667C6.29996 18.025 5.94996 23.5083 7.87496 24.6167C8.86663 25.2 10.5 24.675 12.3083 23.275C14.2916 21.7 16.3333 19.25 18.025 16.3333C19.7166 13.4167 20.825 10.4417 21.175 7.93334C21.4666 5.6 21.1166 3.96667 20.125 3.38334C19.8333 3.26667 19.5416 3.15 19.1916 3.15Z" fill="#80DEEA"/>
<path d="M19.25 26.0167C16.3333 26.0167 12.1333 22.4583 8.98332 16.9167C5.19166 10.3833 4.43333 4.025 7.29166 2.39166C10.15 0.758329 15.2833 4.55 19.075 11.0833C20.825 14.1167 21.9917 17.2667 22.3417 19.95C22.75 22.8083 22.1667 24.7917 20.7083 25.6667C20.2417 25.9 19.775 26.0167 19.25 26.0167ZM7.87499 3.38333C5.94999 4.49166 6.29999 9.975 9.97499 16.3333C13.65 22.6917 18.2 25.725 20.125 24.6167C21.1167 24.0333 21.4667 22.4 21.175 20.0667C20.825 17.5583 19.7167 14.5833 18.025 11.6667C14.35 5.30833 9.79999 2.275 7.87499 3.38333Z" fill="#80DEEA"/>
<path d="M14 16.3333C15.2887 16.3333 16.3334 15.2887 16.3334 14C16.3334 12.7113 15.2887 11.6667 14 11.6667C12.7114 11.6667 11.6667 12.7113 11.6667 14C11.6667 15.2887 12.7114 16.3333 14 16.3333Z" fill="#80DEEA"/>
</svg>
