<svg width="28" height="28" viewBox="0 0 28 28" fill="none" xmlns="http://www.w3.org/2000/svg">
<path d="M3.5 5.83333C3.5 4.54475 4.54475 3.5 5.83333 3.5H22.1667C23.4552 3.5 24.5 4.54475 24.5 5.83333V22.1667C24.5 23.4547 23.4552 24.5 22.1667 24.5H5.83333C4.54475 24.5 3.5 23.4547 3.5 22.1667V5.83333Z" fill="#FF6D00"/>
<path d="M3.5 5.83333V12.8141L5.83333 15.1474C5.83333 15.1474 12.3393 22.6613 17.5 17.5C22.6608 12.3387 15.1778 6.41667 15.1778 6.41667L12.2582 3.5H5.83333C4.54475 3.5 3.5 4.54417 3.5 5.83333Z" fill="#E64A19"/>
<path d="M15.1778 6.41667C21.8447 10.9072 19.6881 15.8591 19.6881 15.8591C19.6881 15.8591 21.5839 17.9789 20.8174 19.8333C20.8174 19.8333 20.0358 18.5348 18.7244 18.5348C17.4609 18.5348 16.7178 19.8333 14.1744 19.8333C8.51143 19.8333 5.83334 15.1474 5.83334 15.1474C10.9358 18.4724 14.4194 16.1175 14.4194 16.1175C12.1205 14.7957 7.00001 8.16667 7.00001 8.16667C11.2578 11.7571 13.4167 12.8333 13.4167 12.8333C12.3188 11.9338 8.75001 7.58334 8.75001 7.58334C11.214 10.0555 16.5124 13.6372 16.5124 13.6372C17.9031 9.81984 15.1778 6.41667 15.1778 6.41667Z" fill="white"/>
</svg>
