<svg width="28" height="28" viewBox="0 0 28 28" fill="none" xmlns="http://www.w3.org/2000/svg">
<path d="M13.9847 24.3145C8.29664 24.3145 3.6855 19.7034 3.6855 14.0154C3.6855 8.32737 8.29664 3.71634 13.9847 3.71634C19.6726 3.71634 24.2837 8.32737 24.2837 14.0154C24.2837 19.7034 19.6726 24.3145 13.9847 24.3145V24.3145ZM13.9847 0.0307312C6.26117 0.0307312 0 6.29201 0 14.0154C0 21.7389 6.26117 28 13.9847 28C21.7081 28 27.9693 21.7389 27.9693 14.0154C27.9693 6.29201 21.7081 0.0307312 13.9846 0.0307312H13.9847Z" fill="#CF272D"/>
<path d="M14.5596 10.5325C14.5596 8.92665 15.8615 7.62476 17.4674 7.62476C19.0734 7.62476 20.3752 8.92665 20.3752 10.5325C20.3752 12.1386 19.0734 13.4403 17.4674 13.4403C15.8615 13.4403 14.5596 12.1386 14.5596 10.5325V10.5325ZM14.5596 17.4981C14.5596 15.8923 15.8615 14.5903 17.4674 14.5903C19.0734 14.5903 20.3752 15.8923 20.3752 17.4981C20.3752 19.1041 19.0734 20.406 17.4674 20.406C15.8615 20.406 14.5596 19.1041 14.5596 17.4981V17.4981ZM7.59402 17.4981C7.59402 15.8923 8.89602 14.5903 10.5019 14.5903C12.1078 14.5903 13.4097 15.8923 13.4097 17.4981C13.4097 19.1041 12.1078 20.406 10.5019 20.406C8.89602 20.406 7.59402 19.1041 7.59402 17.4981ZM7.59402 10.5326C7.59402 8.92665 8.89602 7.62487 10.5019 7.62487C12.1078 7.62487 13.4097 8.92665 13.4097 10.5326C13.4097 12.1387 12.1078 13.4404 10.5019 13.4404C8.89602 13.4404 7.59402 12.1387 7.59402 10.5326Z" fill="#CF272D"/>
</svg>
