<svg width="48" height="48" viewBox="0 0 48 48" fill="none" xmlns="http://www.w3.org/2000/svg">
<path d="M26.4 24.898L27.309 19H30L27.877 29H25.5L24.005 23.062L22.505 29H20.128L18 19H20.695L21.586 25.035L23.02 19H24.979L26.4 24.898ZM12.4 24.898L13.309 19H16L13.877 29H11.5L10.005 23.062L8.505 29H6.128L4 19H6.695L7.586 25.035L9.02 19H10.979L12.4 24.898ZM40.4 24.898L41.309 19H44L41.877 29H39.5L38.005 23.062L36.505 29H34.128L32 19H34.695L35.586 25.035L37.02 19H38.979L40.4 24.898Z" fill="white"/>
<path d="M8.5 12H39.5V14H8.5V12Z" fill="#2196F3"/>
<path d="M8.5 12H39.5V14H8.5V12ZM8.5 34H39.5V36H8.5V34Z" fill="#2196F3"/>
<path d="M7.426 17C9.511 12.089 13.715 8.286 18.888 6.75C16.923 9.048 15.408 12.648 14.615 17H16.663C17.776 11.281 20.182 6.998 23 6.164V17H25V6.164C27.818 6.997 30.224 11.281 31.337 17H33.385C32.592 12.648 31.077 9.048 29.112 6.75C34.285 8.286 38.489 12.089 40.574 17H42.711C39.865 9.419 32.563 4 24 4C15.437 4 8.135 9.419 5.289 17H7.426ZM40.574 31C38.489 35.911 34.285 39.714 29.112 41.25C31.077 38.952 32.592 35.352 33.385 31H31.337C30.224 36.719 27.818 41.002 25 41.836V31H23V41.836C20.182 41.003 17.776 36.719 16.663 31H14.615C15.408 35.352 16.923 38.952 18.888 41.25C13.715 39.714 9.511 35.911 7.426 31H5.289C8.135 38.581 15.437 44 24 44C32.563 44 39.865 38.581 42.711 31H40.574Z" fill="#2196F3"/>
</svg>
